<?xml version="1.0" encoding="UTF-8" standalone="no"?>
<!-- Created with Inkscape (http://www.inkscape.org/) -->

<svg
   width="512"
   height="512"
   viewBox="0 0 135.46667 135.46667"
   version="1.1"
   id="svg5"
   inkscape:version="1.1.1 (3bf5ae0d25, 2021-09-20)"
   sodipodi:docname="splash.svg"
   inkscape:export-filename="C:\Users\vdb\source\repos\cmproj2223-proa-daanvanluijk\CMProject\CMProject\Resources\Splash\splash.png"
   inkscape:export-xdpi="96.000008"
   inkscape:export-ydpi="96.000008"
   xmlns:inkscape="http://www.inkscape.org/namespaces/inkscape"
   xmlns:sodipodi="http://sodipodi.sourceforge.net/DTD/sodipodi-0.dtd"
   xmlns="http://www.w3.org/2000/svg"
   xmlns:svg="http://www.w3.org/2000/svg">
  <sodipodi:namedview
     id="namedview7"
     pagecolor="#505050"
     bordercolor="#eeeeee"
     borderopacity="1"
     inkscape:pageshadow="0"
     inkscape:pageopacity="0"
     inkscape:pagecheckerboard="0"
     inkscape:document-units="mm"
     showgrid="false"
     units="px"
     width="512px"
     inkscape:snap-page="true"
     inkscape:zoom="0.45291836"
     inkscape:cx="43.054117"
     inkscape:cy="480.219"
     inkscape:window-width="1680"
     inkscape:window-height="979"
     inkscape:window-x="1912"
     inkscape:window-y="-8"
     inkscape:window-maximized="1"
     inkscape:current-layer="layer1" />
  <defs
     id="defs2" />
  <g
     inkscape:label="Layer 1"
     inkscape:groupmode="layer"
     id="layer1">
    <g
       aria-label="IKKE
PEDIA"
       id="text2701"
       style="font-size:25.8084px;font-family:'Wide Latin';-inkscape-font-specification:'Wide Latin';stroke-width:0.193562">
      <path
         d="m 43.191412,39.195714 0.07561,-0.126018 q 0.08821,-0.163823 0.277239,-0.163823 0.0252,0 0.189026,0.05041 -0.0252,-0.0252 -0.0252,-0.07561 0,-0.151221 0.151221,-0.151221 h 0.05041 q 0.0252,0 0.289841,-0.07561 l 0.869521,-0.100814 q 0.315044,0 0.781309,0.151221 h 0.176424 l 0.340248,0.100814 q 0.226831,0.21423 0.327645,0.239434 0.100815,0.0252 0.100815,0.07561 0.07561,0.126018 0.315043,0.302442 l 0.365451,0.390655 0.05041,0.100814 q 0.100815,0.189026 0.239434,0.403256 0.151221,0.201628 0.151221,0.655291 l -0.06301,0.151222 q 0.138619,0.06301 0.138619,0.113415 l -0.07561,0.453664 v 0.390654 q 0,0.239434 -0.07561,0.415858 -0.06301,0.176425 -0.06301,0.390655 0,0.05041 -0.176425,0.277238 v 0.0252 l 0.05041,0.340247 q 0,0.05041 -0.113416,0.163823 -0.113416,0.113416 -0.113416,0.176425 0,0.264637 -0.138619,0.403256 -0.0126,0.264637 -0.302442,0.667893 -0.289841,0.390655 -0.365451,0.667893 -0.06301,0.277239 -0.340248,0.705699 -0.100814,0.315044 -0.138619,0.453663 -0.0378,0.138619 -0.277239,0.352849 -0.226831,0.201628 -0.226831,0.541876 -0.07561,0.252035 -0.352849,0.378052 l -0.289841,0.264637 v 0.151221 q 0,0.264637 -0.302442,0.567079 l -0.42846,0.882123 q -0.126017,0.252036 -0.327645,0.252036 l -0.05041,0.05041 q -0.03781,0.365451 -0.126018,0.478866 -0.08821,0.113416 -0.189026,0.264637 -0.100814,0.151221 -0.189027,0.277239 -0.08821,0.113416 -0.189026,0.378053 -0.100814,0.252035 -0.289841,0.441061 l -0.126017,0.277239 v 0.100814 q 0,0.340247 -0.226832,0.340247 -0.0378,0 -0.138619,-0.0252 h -0.0252 q 0.07561,0.264637 0.07561,0.390654 0,0.07561 -0.352849,0.793911 l -0.05041,0.189026 v 0.201629 q -0.189027,0.201628 -0.252035,0.365451 -0.06301,0.151221 -0.201629,0.214229 -0.138619,0.06301 -0.138619,0.08821 l 0.05041,0.07561 v 0.05041 l -0.08821,0.390655 0.06301,0.466265 q 0,0.05041 -0.113416,0.264637 0.415858,0.302442 0.415858,0.642689 0,0.541876 -0.441062,0.64269 h -0.07561 l -0.252035,0.0252 q -0.441062,0 -0.617486,-0.126017 -0.176425,-0.126018 -0.441062,-0.390655 l -0.163823,-0.100814 q -0.07561,-0.05041 -0.126017,-0.189026 l -0.126018,-0.126018 q -0.264637,-0.327645 -0.264637,-1.058547 0,-0.07561 0.113416,-0.176425 l 0.0252,-0.07561 -0.0252,-0.239434 q 0,-0.06301 0.277239,-0.819114 l 0.365451,-0.756105 q 0.302442,-0.617487 0.415858,-0.718301 0.0378,-0.201628 0.126017,-0.466265 l 0.07561,-0.05041 q 0.0252,-0.176424 0.189026,-0.378052 0.176425,-0.21423 0.252035,-0.504071 0.176425,-0.0252 0.176425,-0.07561 0,-0.0252 -0.0252,-0.100814 v -0.05041 q 0,-0.226832 0.176425,-0.390655 0.189026,-0.176424 0.277239,-0.403256 0.08821,-0.239433 0.201628,-0.352849 0.126017,-0.113416 0.226831,-0.403256 0.08821,-0.08821 0.252035,-0.126018 0.163823,-0.05041 0.163823,-0.126018 0,-0.0252 -0.113416,-0.239433 0.340248,-0.781309 0.730902,-1.209769 0.05041,-0.07561 0.100814,-0.239433 0.05041,-0.176425 0.201629,-0.252035 0.138619,-0.42846 0.327645,-0.705699 0.189027,-0.277238 0.340248,-0.604884 0.163823,-0.340247 0.390654,-0.340247 l 0.05041,-0.07561 -0.0252,-0.264637 q 0,-0.0126 0.100814,-0.239433 0.113416,-0.226832 0.201628,-0.252035 0.08821,-0.0252 0.21423,-0.201629 L 44.96826,44.513655 q 0.05041,-0.0378 0.08821,-0.126017 0.0378,-0.08821 0.08821,-0.08821 0.315044,-0.176424 0.315044,-0.378052 0,-0.05041 -0.0252,-0.163823 v -0.05041 q 0,-0.07561 0.226831,-0.327646 0.239434,-0.264637 0.239434,-0.630088 0.0252,-0.176424 0.151221,-0.327645 0.126017,-0.151222 0.126017,-0.252036 0,-0.08821 0.07561,-0.189026 l -0.05041,-0.315044 q 0.239433,-0.365451 0.239433,-0.667893 0,-0.0252 -0.06301,-0.126018 -0.06301,-0.100814 -0.06301,-0.264636 0,-0.07561 -0.13862,-0.201629 l -0.05041,-0.126017 q -0.390654,-0.13862 -0.50407,-0.252035 -0.113416,-0.113416 -0.630088,-0.113416 l -0.226831,0.05041 -0.189027,-0.05041 q -0.07561,0.05041 -0.126017,0.05041 h -0.0252 l -0.126017,-0.0252 q -0.21423,0 -0.604885,0.176425 -0.378053,0.163823 -0.50407,0.163823 -0.390655,0 -0.529274,0.226831 -0.126017,0.21423 -0.201628,0.21423 l -0.126018,-0.05041 h -0.0252 q -0.100814,0 -0.176425,0.35285 l -0.0252,0.05041 q -0.491469,0.277238 -0.781309,0.567079 l -0.819114,0.856919 q -0.415858,0.42846 -0.453664,0.579681 -0.0378,0.138619 -0.252035,0.277239 -0.201628,0.365451 -0.201628,0.516672 0,0.327645 -0.138619,0.453663 -0.13862,0.113416 -0.13862,0.189026 0,0.05041 0.0252,0.100814 0.0252,0.05041 0.100814,0.277239 v 0.06301 q 0,0.151221 -0.100814,0.264637 -0.08821,0.113416 -0.08821,0.138619 0,0.0378 0.214229,0.264637 0.226832,0.226832 0.226832,0.327646 0,0.340247 -0.302442,0.630088 -0.28984,0.277238 -0.617486,0.277238 -0.289841,0 -0.466265,-0.138619 -0.163823,-0.138619 -0.163823,-0.844318 l 0.0252,-0.327646 0.113416,-0.365451 -0.0252,-0.390654 q 0,-0.05041 0.239433,-0.42846 0.239434,-0.390654 0.302442,-0.567079 0.226832,-0.743504 0.693097,-1.14676 0.100814,-0.07561 0.100814,-0.176424 0,-0.176425 0.151221,-0.340248 0,-0.05041 0.176425,-0.201628 0.176424,-0.151221 0.21423,-0.315044 0.05041,-0.176425 0.226831,-0.226832 0.189027,-0.05041 0.264637,-0.340247 0.289841,-0.352849 0.693097,-0.567079 0.189026,-0.352849 0.441061,-0.441062 l 0.340248,-0.226831 0.07561,-0.126018 q 0.07561,-0.07561 0.201628,-0.126017 0.126018,-0.06301 0.239434,-0.189027 0.352849,-0.176424 0.466265,-0.176424 z"
         style="-inkscape-font-specification:'Rage Italic, '"
         id="path77451" />
      <path
         d="m 54.331366,43.681939 0.21423,-0.201628 q 0.201628,-0.806512 0.642689,-0.93253 l 0.07561,-0.07561 q -0.151221,-0.151221 -0.151221,-0.264637 0,-0.05041 0.05041,-0.176425 l 0.05041,-0.252035 q 0.0252,-0.138619 0.189026,-0.441062 0.163823,-0.315043 0.226832,-1.033344 v -0.07561 q 0,-0.264637 -0.264637,-0.882123 v -0.05041 q 0,-0.226832 0.151221,-0.453664 0.163823,-0.239433 0.315044,-0.239433 0.957734,0 1.134158,0.352849 0.189027,0.340248 0.340248,0.491469 0.340247,0.239433 0.340247,0.982937 0,0.466265 -0.189026,0.630088 -0.176425,0.151221 -0.239434,0.315044 -0.06301,0.163823 -0.201628,0.315044 -0.126017,0.138619 -0.126017,0.163822 l 0.05041,0.252036 q 0,0.28984 -0.201628,0.365451 v 0.07561 h 0.126017 q 0.126018,0 0.201628,-0.07561 0.08821,-0.07561 0.365451,-0.151221 0.289841,-0.07561 0.403257,-0.163823 0.113415,-0.100814 0.201628,-0.13862 0.100814,-0.0378 0.226831,-0.113415 l 0.756106,-0.415858 q 0.390654,-0.21423 0.756105,-0.365451 0.378053,-0.151222 0.579681,-0.35285 l 0.42846,-0.126017 0.21423,0.0252 q 0.05041,0 0.163822,-0.176424 0.113416,-0.189027 0.201629,-0.189027 l 0.151221,0.0252 q 0.201628,-0.100814 0.277238,-0.100814 l 0.163823,-0.0252 0.327646,-0.28984 0.264637,-0.0252 q 0.352849,-0.315044 0.793911,-0.277238 0.06301,-0.03781 0.201628,-0.163823 0.138619,-0.126018 0.315044,-0.126018 0.0378,0 0.214229,-0.100814 L 64.274153,39.0949 q 0.100814,-0.13862 0.226831,-0.163823 l 0.315044,-0.100814 q 0.126018,-0.07561 0.176425,-0.07561 l 0.163823,0.05041 q 0.378052,-0.302442 0.567079,-0.302442 0.7183,0 0.7183,0.655291 0,0.592283 -0.491469,1.096353 l -0.768707,0.466265 q -0.0252,0.0126 -0.340247,0.07561 -0.315044,0.05041 -1.234973,0.516672 l -0.189026,-0.0252 q -0.126018,0.126018 -0.252035,0.126018 l -0.151221,-0.0252 q -0.264637,0.126018 -0.441062,0.163823 -0.163823,0.03781 -0.441061,0.201628 -0.264637,0.151222 -0.617486,0.239434 -0.340248,0.08821 -0.567079,0.226831 -0.21423,0.126018 -0.340248,0.126018 h -0.126017 q -0.100814,0 -0.882123,0.352849 -0.226832,0.08821 -0.315044,0.113416 -0.08821,0.0252 -0.453664,0.151221 l -0.567079,0.327646 q -0.05041,0.0126 -0.491468,0.239433 h -0.239434 q -0.0378,0 -0.453663,0.277239 -0.0252,0 -0.08821,0.0252 h -0.0252 l -0.176424,-0.0252 q -0.05041,0 -0.189027,0.126017 -0.126017,0.113416 -0.340247,0.176425 -0.21423,0.06301 -0.252035,0.176425 l -0.201628,0.390654 q -0.113416,0.201628 -0.226832,0.264637 -0.100814,0.05041 -0.189026,0.415858 l -0.718301,1.474406 -0.151221,0.07561 q 0.05041,0.21423 0.05041,0.239434 -0.05041,0.07561 -0.163823,0.327645 -0.100814,0.239434 -0.176424,0.327646 -0.07561,0.08821 -0.226832,0.453663 1.045946,0.655292 1.134158,0.617486 l 0.05041,0.05041 v 0.07561 q 0,0.126018 0.151222,0.189026 0.163822,0.05041 0.252035,0.113416 0.08821,0.06301 0.403256,0.06301 l 0.302442,0.302442 0.151221,-0.0252 q 0.100814,0 0.289841,0.138619 0.201628,0.126017 0.428459,0.226832 0.239434,0.100814 0.340248,0.189026 0.113416,0.08821 0.352849,0.151221 0.239433,0.06301 0.239433,0.100814 0,0.226832 0.604885,0.302442 0.378053,0.189027 0.42846,0.302442 0.05041,0.113416 0.239433,0.176425 0.201628,0.06301 0.415858,0.201628 l 0.327646,0.126018 q 0.05041,0.05041 0.08821,0.138619 0.0378,0.08821 0.327646,0.176425 0.28984,0.07561 0.340247,0.189026 0.05041,0.113416 0.201628,0.21423 l 0.226832,-0.05041 q 0.630088,0.315044 0.781309,0.466265 0.07561,0.0252 0.277238,0.08821 0.21423,0.06301 0.289841,0.189027 0.07561,0.113415 0.302442,0.189026 0.655291,0.201628 0.781309,1.058548 -0.113416,0.264636 -0.28984,0.541875 -0.252036,0.100814 -0.35285,0.163823 -0.100814,0.05041 -0.466265,0.138619 l -0.100814,0.08821 q 0,0.0252 -0.05041,0.0252 -0.567079,0 -0.730902,-0.579681 -0.0252,-0.07561 -0.126017,-0.151221 -0.100814,0.126018 -0.151221,0.126018 -0.151221,0 -0.315044,-0.100814 -0.163823,-0.113416 -0.403257,-0.340248 -0.226831,-0.226831 -0.567079,-0.441061 -0.327645,-0.21423 -0.50407,-0.352849 -0.516672,-0.529274 -1.4366,-0.932531 -0.07561,-0.05041 -0.21423,-0.176424 -0.126018,-0.126018 -0.64269,-0.378053 -0.516672,-0.264637 -0.982937,-0.907326 l -0.100814,-0.05041 q -0.201628,-0.163823 -0.365451,-0.315044 -0.151221,-0.151221 -0.42846,-0.201628 -0.264637,-0.163823 -0.441061,-0.340248 -1.323185,-0.882123 -1.524813,-0.982937 0,0.592283 -0.176424,0.592283 l -0.13862,-0.0252 q -0.05041,0 -0.151221,0.390655 v 0.176424 l -0.163823,0.541876 q -0.151221,0.554477 -0.403256,0.592282 v 0.189027 q -0.252035,0.403256 -0.315044,0.630088 -0.05041,0.214229 -0.176424,0.491468 -0.126018,0.264637 -0.226832,0.655291 -0.100814,0.390655 -0.466265,1.234973 v 0.0252 l 0.07561,0.21423 v 0.100814 q 0,0.100814 -0.100814,0.390655 0.126018,0.252035 0.126018,0.277238 0,0.07561 -0.06301,0.21423 -0.06301,0.126018 -0.113416,0.239434 -0.05041,0.113415 -0.466265,0.252035 -0.07561,-0.03781 -0.239433,-0.189027 -0.441062,-0.05041 -0.64269,-0.415858 0,-0.0252 -0.08821,-0.201628 -0.08821,-0.176424 -0.08821,-0.340247 0,-0.0252 -0.08821,-0.289841 -0.08821,-0.277238 -0.08821,-0.403256 0,-0.756105 0.378053,-1.310583 l 0.0252,-0.163822 q 0.03781,-0.13862 0.163823,-0.390655 l 0.176425,-0.378053 0.0252,-0.176424 q 0.0252,-0.189027 0.113416,-0.315044 0.100814,-0.13862 0.352849,-0.693097 l 0.100814,-0.163823 q 0.13862,-0.315044 0.163823,-0.352849 0.03781,-0.0378 0.03781,-0.100814 l 0.0252,-0.138619 q 0.08821,-0.07561 0.08821,-0.176425 0.05041,-0.0252 0.176425,-0.126018 0.113416,-0.352849 0.315044,-0.781308 l 0.390654,-0.85692 q 0.03781,-0.06301 0.03781,-0.08821 0,-0.08821 -1.902866,-1.423999 -0.21423,-0.151221 -0.21423,-0.415858 0,-0.415858 0.85692,-0.819114 0.07561,-0.0252 0.541875,-0.327646 0.466265,-0.302442 0.667894,-0.302442 0.07561,0 0.667893,-0.340247 0.604884,-0.35285 0.655291,-0.365451 0.05041,-0.0126 0.08821,-0.05041 0.03781,-0.03781 0.189027,-0.100814 0.163823,-0.06301 0.415858,-0.201629 0.252035,-0.138619 0.252035,-0.151221 z m -1.978476,3.541094 0.151221,0.07561 h 0.05041 q 0.113416,0 0.541876,-1.159362 l 0.390654,-0.93253 -0.151221,-0.0252 q -0.06301,0 -0.163823,0.126018 -1.197167,0.453663 -1.461804,0.667893 l -0.113415,0.06301 q -0.277239,0.126018 -0.277239,0.453663 0.42846,0.42846 1.033344,0.730902 z"
         style="-inkscape-font-specification:'Rage Italic, '"
         id="path77453" />
      <path
         d="m 72.452692,43.681939 0.21423,-0.201628 q 0.201628,-0.806512 0.64269,-0.93253 l 0.07561,-0.07561 q -0.151221,-0.151221 -0.151221,-0.264637 0,-0.05041 0.05041,-0.176425 l 0.05041,-0.252035 q 0.0252,-0.138619 0.189027,-0.441062 0.163823,-0.315043 0.226831,-1.033344 v -0.07561 q 0,-0.264637 -0.264636,-0.882123 v -0.05041 q 0,-0.226832 0.151221,-0.453664 0.163822,-0.239433 0.315044,-0.239433 0.957733,0 1.134158,0.352849 0.189026,0.340248 0.340247,0.491469 0.340248,0.239433 0.340248,0.982937 0,0.466265 -0.189027,0.630088 -0.176424,0.151221 -0.239433,0.315044 -0.06301,0.163823 -0.201628,0.315044 -0.126018,0.138619 -0.126018,0.163822 l 0.05041,0.252036 q 0,0.28984 -0.201628,0.365451 v 0.07561 h 0.126018 q 0.126017,0 0.201628,-0.07561 0.08821,-0.07561 0.365451,-0.151221 0.28984,-0.07561 0.403256,-0.163823 0.113416,-0.100814 0.201628,-0.13862 0.100814,-0.0378 0.226832,-0.113415 l 0.756105,-0.415858 q 0.390655,-0.21423 0.756106,-0.365451 0.378052,-0.151222 0.57968,-0.35285 l 0.42846,-0.126017 0.21423,0.0252 q 0.05041,0 0.163823,-0.176424 0.113416,-0.189027 0.201628,-0.189027 l 0.151221,0.0252 q 0.201628,-0.100814 0.277239,-0.100814 l 0.163823,-0.0252 0.327645,-0.28984 0.264637,-0.0252 q 0.352849,-0.315044 0.793911,-0.277238 0.06301,-0.03781 0.201628,-0.163823 0.138619,-0.126018 0.315044,-0.126018 0.03781,0 0.21423,-0.100814 L 82.395479,39.0949 q 0.100814,-0.13862 0.226832,-0.163823 l 0.315044,-0.100814 q 0.126017,-0.07561 0.176424,-0.07561 l 0.163823,0.05041 q 0.378053,-0.302442 0.567079,-0.302442 0.7183,0 0.7183,0.655291 0,0.592283 -0.491468,1.096353 l -0.768707,0.466265 q -0.0252,0.0126 -0.340248,0.07561 -0.315044,0.05041 -1.234972,0.516672 l -0.189026,-0.0252 q -0.126018,0.126018 -0.252036,0.126018 l -0.151221,-0.0252 q -0.264637,0.126018 -0.441061,0.163823 -0.163823,0.03781 -0.441062,0.201628 -0.264637,0.151222 -0.617486,0.239434 -0.340247,0.08821 -0.567079,0.226831 -0.21423,0.126018 -0.340247,0.126018 H 78.60235 q -0.100814,0 -0.882123,0.352849 -0.226832,0.08821 -0.315044,0.113416 -0.08821,0.0252 -0.453663,0.151221 l -0.567079,0.327646 q -0.05041,0.0126 -0.491469,0.239433 h -0.239433 q -0.0378,0 -0.453663,0.277239 -0.0252,0 -0.08821,0.0252 h -0.0252 l -0.176425,-0.0252 q -0.05041,0 -0.189026,0.126017 -0.126018,0.113416 -0.340248,0.176425 -0.21423,0.06301 -0.252035,0.176425 l -0.201628,0.390654 q -0.113416,0.201628 -0.226832,0.264637 -0.100814,0.05041 -0.189026,0.415858 l -0.7183,1.474406 -0.151221,0.07561 q 0.05041,0.21423 0.05041,0.239434 -0.05041,0.07561 -0.163823,0.327645 -0.100814,0.239434 -0.176425,0.327646 -0.07561,0.08821 -0.226831,0.453663 1.045946,0.655292 1.134158,0.617486 l 0.05041,0.05041 v 0.07561 q 0,0.126018 0.151221,0.189026 0.163823,0.05041 0.252035,0.113416 0.08821,0.06301 0.403256,0.06301 l 0.302443,0.302442 0.151221,-0.0252 q 0.100814,0 0.28984,0.138619 0.201628,0.126017 0.42846,0.226832 0.239433,0.100814 0.340247,0.189026 0.113416,0.08821 0.352849,0.151221 0.239434,0.06301 0.239434,0.100814 0,0.226832 0.604884,0.302442 0.378053,0.189027 0.42846,0.302442 0.05041,0.113416 0.239433,0.176425 0.201628,0.06301 0.415858,0.201628 l 0.327646,0.126018 q 0.05041,0.05041 0.08821,0.138619 0.03781,0.08821 0.327646,0.176425 0.28984,0.07561 0.340248,0.189026 0.05041,0.113416 0.201628,0.21423 l 0.226831,-0.05041 q 0.630088,0.315044 0.781309,0.466265 0.07561,0.0252 0.277239,0.08821 0.21423,0.06301 0.28984,0.189027 0.07561,0.113415 0.302442,0.189026 0.655292,0.201628 0.781309,1.058548 -0.113415,0.264636 -0.28984,0.541875 -0.252035,0.100814 -0.352849,0.163823 -0.100814,0.05041 -0.466265,0.138619 l -0.100814,0.08821 q 0,0.0252 -0.05041,0.0252 -0.567079,0 -0.730902,-0.579681 -0.0252,-0.07561 -0.126018,-0.151221 -0.100814,0.126018 -0.151221,0.126018 -0.151221,0 -0.315044,-0.100814 -0.163823,-0.113416 -0.403256,-0.340248 -0.226832,-0.226831 -0.567079,-0.441061 -0.327646,-0.21423 -0.50407,-0.352849 -0.516673,-0.529274 -1.436601,-0.932531 -0.07561,-0.05041 -0.21423,-0.176424 -0.126017,-0.126018 -0.642689,-0.378053 -0.516672,-0.264637 -0.982937,-0.907326 l -0.100814,-0.05041 q -0.201629,-0.163823 -0.365451,-0.315044 -0.151221,-0.151221 -0.42846,-0.201628 -0.264637,-0.163823 -0.441062,-0.340248 -1.323184,-0.882123 -1.524812,-0.982937 0,0.592283 -0.176425,0.592283 l -0.138619,-0.0252 q -0.05041,0 -0.151221,0.390655 v 0.176424 l -0.163823,0.541876 q -0.151221,0.554477 -0.403256,0.592282 v 0.189027 q -0.252036,0.403256 -0.315044,0.630088 -0.05041,0.214229 -0.176425,0.491468 -0.126018,0.264637 -0.226832,0.655291 -0.100814,0.390655 -0.466265,1.234973 v 0.0252 l 0.07561,0.21423 v 0.100814 q 0,0.100814 -0.100814,0.390655 0.126017,0.252035 0.126017,0.277238 0,0.07561 -0.06301,0.21423 -0.06301,0.126018 -0.113416,0.239434 -0.05041,0.113415 -0.466265,0.252035 -0.07561,-0.03781 -0.239434,-0.189027 -0.441061,-0.05041 -0.642689,-0.415858 0,-0.0252 -0.08821,-0.201628 -0.08821,-0.176424 -0.08821,-0.340247 0,-0.0252 -0.08821,-0.289841 -0.08821,-0.277238 -0.08821,-0.403256 0,-0.756105 0.378052,-1.310583 l 0.0252,-0.163822 q 0.03781,-0.13862 0.163823,-0.390655 l 0.176424,-0.378053 0.0252,-0.176424 q 0.0252,-0.189027 0.113416,-0.315044 0.100814,-0.13862 0.352849,-0.693097 l 0.100814,-0.163823 q 0.138619,-0.315044 0.163823,-0.352849 0.0378,-0.0378 0.0378,-0.100814 l 0.0252,-0.138619 q 0.08821,-0.07561 0.08821,-0.176425 0.05041,-0.0252 0.176424,-0.126018 0.113416,-0.352849 0.315044,-0.781308 l 0.390655,-0.85692 q 0.0378,-0.06301 0.0378,-0.08821 0,-0.08821 -1.902865,-1.423999 -0.21423,-0.151221 -0.21423,-0.415858 0,-0.415858 0.856919,-0.819114 0.07561,-0.0252 0.541876,-0.327646 0.466265,-0.302442 0.667893,-0.302442 0.07561,0 0.667893,-0.340247 0.604885,-0.35285 0.655292,-0.365451 0.05041,-0.0126 0.08821,-0.05041 0.03781,-0.03781 0.189026,-0.100814 0.163823,-0.06301 0.415858,-0.201629 0.252035,-0.138619 0.252035,-0.151221 z m -1.978476,3.541094 0.151222,0.07561 h 0.05041 q 0.113415,0 0.541875,-1.159362 l 0.390655,-0.93253 -0.151221,-0.0252 q -0.06301,0 -0.163823,0.126018 -1.197167,0.453663 -1.461804,0.667893 l -0.113416,0.06301 q -0.277239,0.126018 -0.277239,0.453663 0.42846,0.42846 1.033344,0.730902 z"
         style="-inkscape-font-specification:'Rage Italic, '"
         id="path77455" />
      <path
         d="m 83.353212,54.632867 -0.176425,-0.491469 q 0,-0.0252 0.100814,-0.21423 -0.126017,-0.100814 -0.126017,-0.151221 0,-0.126018 0.100814,-0.340247 -0.100814,-0.100814 -0.100814,-0.201629 l 0.07561,-0.264636 q 0.07561,-0.277239 0.201628,-0.35285 l 0.0252,-0.07561 q -0.100814,-0.07561 -0.100814,-0.13862 0,-0.0252 0.126017,-0.252035 l 0.0252,-0.176424 q 0.0252,-0.264637 0.315044,-0.415858 0,-0.579681 0.252035,-0.768707 0.264637,-0.189027 0.378053,-0.403257 0.126017,-0.21423 0.554477,-0.79391 0.239433,-0.151222 0.491469,-0.277239 0.08821,-0.327646 0.239433,-0.378053 0.151221,-0.06301 0.42846,-0.403256 0.28984,-0.352849 0.705698,-0.390655 l 0.126018,-0.05041 q 0.06301,-0.201628 0.352849,-0.390654 0.28984,-0.201628 0.516672,-0.28984 0.226832,-0.08821 0.378053,-0.201629 0.151221,-0.126017 0.378052,-0.226831 l 0.201629,-0.100814 q 0.08821,-0.06301 0.239433,-0.226832 l 0.100814,-0.0252 h 0.100814 q 0.126018,0 0.315044,-0.113416 0.201628,-0.113416 0.201628,-0.226832 l -0.176424,0.100814 h -0.08821 l -0.453663,0.163823 -0.630088,0.07561 q -0.151221,-0.13862 -0.302442,-0.163823 -0.567079,-0.126018 -0.567079,-0.919929 0,-0.57968 0.239433,-0.869521 0.252035,-0.302442 0.340248,-0.592282 0.100814,-0.289841 0.352849,-0.554478 0.252035,-0.264637 0.277239,-0.390654 0,-0.05041 0.151221,-0.126018 0.151221,-0.07561 0.21423,-0.239433 0.07561,-0.163823 0.441061,-0.378053 -0.06301,-0.08821 0.64269,-0.567079 0.05041,-0.05041 0.126017,-0.189026 0.07561,-0.151221 0.100814,-0.151221 0.239434,0 0.491469,-0.252036 l 0.441061,-0.390654 q 0.226832,-0.21423 0.567079,-0.365451 0.151221,-0.327646 0.340248,-0.327646 0.0252,0 0.176424,0.07561 h 0.05041 q 0.0252,0 0.239434,-0.226832 0.226832,-0.239433 0.403256,-0.340247 0.289841,0.100814 0.340248,0.100814 v -0.05041 q 0,-0.0252 0.0252,-0.100814 l 0.516672,-0.315044 0.252035,0.0252 q 0.340248,-0.252035 0.705699,-0.252035 0.0252,0 0.176424,0.05041 0.151221,-0.138619 0.466265,-0.138619 0.05041,0 0.151221,0.07561 0.100814,0.06301 0.151222,0.06301 0.06301,0 0.113415,-0.0252 0.05041,-0.0252 0.100814,-0.0252 0.176425,0 0.302443,0.126018 0.138619,0.126017 0.327645,0.138619 0.189027,0.0126 0.365451,0.42846 0.189027,0.403256 0.189027,0.768707 l -0.0252,0.264637 0.0252,0.201628 q -0.163823,0.302442 -0.189027,0.529274 -0.0126,0.21423 -0.201628,0.478867 l -0.100814,0.340247 q -0.176425,0.151221 -0.226832,0.252035 l -0.0252,0.0252 q -0.0378,0.390654 -0.315044,0.390654 h -0.100814 q -0.315044,0 -0.478867,-0.264637 -0.163823,-0.277238 -0.163823,-0.478867 0,-0.264636 0.252035,-0.491468 0.264637,-0.239433 0.541876,-0.239433 l 0.05041,-0.0252 q -0.0252,-0.05041 -0.0252,-0.151221 0,-0.100814 0.126017,-0.151221 l 0.08821,-0.06301 q 0.0126,-0.08821 0.06301,-0.201628 0.06301,-0.126018 0.06301,-0.176425 0,-0.163822 -0.163823,-0.478866 -0.163823,-0.327646 -0.302442,-0.327646 -0.05041,0 -0.100814,0.0252 -0.05041,0.0252 -0.07561,0.0252 l -0.21423,-0.0252 q -0.428459,0 -1.184565,0.441062 l -0.151221,0.05041 h -0.28984 q -0.0252,0 -0.100814,0.126018 -0.176425,0.06301 -0.327646,0.28984 -0.138619,0.226832 -0.441062,0.365451 -0.28984,0.126017 -0.390654,0.226832 l -0.21423,0.07561 q -0.151221,0.05041 -0.264637,0.226832 -0.113416,0.163823 -0.554477,0.50407 -0.541876,0.541876 -0.64269,0.743504 l -0.163823,0.100814 -0.327645,0.441061 q -0.315044,0.630088 -0.617486,0.793911 -0.05041,0 -0.277239,0.554477 -0.21423,0.541876 -0.315044,0.592283 -0.08821,0.05041 -0.08821,0.100814 0,0.0252 0.0252,0.100814 0.239434,-0.07561 0.403256,-0.176425 0.176425,-0.113415 0.252036,-0.113415 0.07561,0 0.302442,-0.151221 h 0.07561 q 0.113416,0 0.264637,-0.151222 h 0.176425 q 0.07561,-0.08821 0.28984,-0.189026 0.21423,-0.100814 0.604885,-0.315044 0.403256,-0.21423 0.93253,-0.365451 0.529273,-0.163823 0.945131,-0.277239 0.42846,-0.113415 0.504071,-0.113415 0.705698,0 0.705698,0.352849 0,0.64269 -0.567079,1.14676 -0.554477,0.50407 -0.680495,0.50407 l -0.201628,-0.0252 -0.907326,0.214229 q -0.13862,0.0252 -0.226832,0.100815 l -0.982937,0.541875 -0.441062,0.327646 -0.226831,0.06301 q -0.390655,0.352849 -0.567079,0.378052 l -0.21423,0.05041 q -0.226832,0.491469 -0.403257,0.491469 -0.06301,0 -0.189026,-0.100814 -0.0252,0.0252 -0.05041,0.100814 -0.0252,0.07561 -0.21423,0.315044 -0.176424,0.239433 -0.302442,0.277238 -0.113416,0.03781 -0.226832,0.08821 -0.05041,0.453663 -0.239433,0.453663 l -0.226832,-0.0252 v 0.163822 q 0,0.126018 -0.201628,0.21423 -0.189026,0.08821 -0.226831,0.151221 -0.03781,0.06301 -0.08821,0.06301 l -0.176424,-0.100814 -0.0252,0.05041 q 0.05041,0.100814 0.05041,0.163823 0,0.05041 -0.08821,0.151221 -0.08821,0.100814 -0.226832,0.390655 -0.138619,0.05041 -0.176424,0.07561 -0.100814,0.201628 -0.239434,0.415858 -0.100814,0 -0.189026,0.176425 -0.08821,0.176424 -0.138619,0.390654 -0.05041,0.201628 -0.21423,0.277239 -0.113416,0.151221 -0.239434,0.441061 -0.113415,0.289841 -0.151221,0.64269 -0.03781,0.340247 -0.201628,0.592283 0.0252,0.0252 0.0252,0.05041 l -0.0252,0.340247 q 0.0126,0.0126 0.08821,0.277239 0.08821,0.264637 0.201629,0.302442 0.126017,0.0378 0.201628,0.163823 0.05041,0 0.28984,0.07561 l 0.126018,-0.07561 q 0.126017,0 0.226831,0.07561 h 0.05041 l 0.21423,-0.05041 0.126018,0.05041 q 0.100814,0 0.252035,-0.100814 0,-0.0252 0.0378,-0.0252 l 0.176425,0.100814 q 0.252035,-0.151221 0.365451,-0.163823 0.126017,-0.0126 0.189026,-0.126018 0.07561,-0.113416 0.163823,-0.113416 0.0252,0 0.151221,0.07561 h 0.03781 q 0.0252,0 0.126018,-0.08821 0.100814,-0.100814 0.277239,-0.151221 0.189026,-0.05041 0.28984,-0.126018 0.100814,-0.07561 0.352849,-0.201628 0.239434,-0.0252 0.390655,-0.163823 l 0.126017,-0.05041 q 0.113416,-0.0252 0.189027,-0.151221 0.08821,-0.126018 0.667893,-0.516672 L 91.1537,52.591382 q 0.365451,-0.315044 0.79391,-0.529274 0.441062,-0.226832 0.541876,-0.453663 L 92.5903,51.457224 q 0.50407,-0.05041 0.592283,-0.289841 0.189026,-0.201628 0.415858,-0.277238 0.06301,-0.21423 0.07561,-0.239434 l 0.21423,-0.05041 0.05041,-0.05041 q 0.05041,-0.302442 0.176425,-0.340247 0.126017,-0.05041 0.340247,-0.239434 0.226832,-0.189026 0.42846,-0.302442 l 0.617486,-0.604884 q 0.06301,-0.06301 0.239433,-0.189027 0.0252,-0.100814 0.201629,-0.151221 l 0.138619,-0.138619 q 0.0252,-0.05041 0.138619,-0.113416 0.113416,-0.06301 0.327646,-0.327646 0.226831,-0.277238 0.516672,-0.277238 0.07561,0 0.07561,0.07561 0,0.844318 -0.264636,1.121557 -0.264637,0.264637 -0.907327,0.79391 -0.0252,0 -0.163823,0.189027 -0.138619,0.189026 -0.239433,0.21423 -0.0378,0.0378 -0.176425,0.226831 -0.138619,0.189027 -0.239433,0.189027 -0.113416,0 -0.289841,0.264637 l -0.302442,0.201628 -0.239433,0.264637 q -0.100814,0.07561 -0.189027,0.100814 -0.08821,0.0252 -0.126017,0.138619 -0.0378,0.113416 -0.189026,0.21423 -0.13862,0.08821 -0.453664,0.390654 l -0.529274,0.478867 q -0.113415,0.113416 -0.264636,0.189027 l -0.541876,0.541875 q -0.176425,0.239433 -0.441062,0.239433 h -0.201628 q -0.0252,-0.0252 -0.126017,-0.100814 l -0.07561,-0.0252 q -0.113416,0 -0.113416,0.05041 l 0.0252,0.327646 q -0.07561,0.05041 -0.126018,0.05041 l -0.07561,0.0252 q -0.201628,0.352849 -0.478867,0.554477 -0.264637,0.201629 -0.302442,0.239434 -0.03781,0.0378 -0.151221,0.06301 -0.100814,0.0252 -0.21423,0.113415 -0.113416,0.08821 -0.365451,0.189027 -0.239433,0.08821 -0.390655,0.176424 -0.138619,0.08821 -0.163822,0.08821 -0.100814,0 -0.252036,-0.100814 -0.163822,0.176424 -0.226831,0.352849 -0.06301,0.163823 -0.163823,0.163823 -0.07561,0 -0.64269,0.201628 -0.554477,0.189026 -0.642689,0.28984 l -0.315044,-0.07561 q -0.189027,0.100814 -0.390655,0.100814 l -0.226831,-0.05041 q -0.239434,0.07561 -0.264637,0.07561 l -1.058548,-0.491468 q -0.151221,-0.07561 -0.176425,-0.126018 -0.0252,-0.05041 -0.07561,-0.05041 -0.415858,-0.21423 -0.554477,-0.478867 -0.126018,-0.264637 -0.327646,-0.403256 z"
         style="-inkscape-font-specification:'Rage Italic, '"
         id="path77457" />
      <path
         d="m 36.235242,74.349398 0.100814,-0.126018 q 0.08821,-0.126018 0.252035,-0.138619 0.163823,-0.0252 0.315044,-0.100814 l 1.852458,-0.516672 q 0.264637,-0.06301 0.655292,-0.100814 l 0.403256,-0.126018 q 0.163823,-0.07561 0.466265,-0.07561 l 0.415858,-0.08821 q 0.05041,0 0.08821,0.100814 0.03781,0.08821 0.06301,0.08821 0.592283,-0.390654 0.756105,-0.390654 h 0.0252 l 0.302442,0.07561 q 0.07561,0 0.163823,-0.100815 l 0.05041,-0.05041 q 0.277239,0.126018 0.302442,0.126018 0.189027,0 0.42846,-0.07561 0.239433,-0.07561 0.453663,-0.07561 l 0.390655,0.0252 0.869521,-0.05041 q 0.07561,0 0.163823,0.07561 l 0.252035,-0.05041 q 0.365451,0 0.7183,0.100814 0.365451,0.100814 0.869521,0.151221 0.504071,0.05041 0.730902,0.340248 l 0.21423,0.07561 h 0.151221 q 0.327646,0 0.390655,0.264637 0.07561,0.151221 0.302442,0.302442 l 0.163823,0.264637 q -0.0252,0.07561 -0.0252,0.151221 0,0.07561 0.277239,0.176425 l 0.05041,0.0252 q 0.0126,0.189027 0.239433,0.441062 0.226832,0.239433 0.226832,0.907326 v 0.302442 l 0.05041,0.655292 q 0,0.667893 -0.403256,1.613025 -0.390655,0.945132 -0.831716,1.323184 -0.100814,0.340248 -0.239434,0.340248 -0.441061,0.403256 -0.567079,0.403256 -0.0252,0 -0.07561,-0.0252 -0.163823,0.302442 -0.554478,0.529273 -0.378052,0.226832 -0.491468,0.264637 -0.113416,0.03781 -0.579681,0.21423 l -0.302442,-0.07561 q -0.189026,0.176424 -0.264637,0.189026 l -0.667893,0.277239 q -0.844318,0.226831 -1.108955,0.226831 L 42.96458,82.11208 q -0.07561,0 -0.226831,0.189027 l -0.239434,0.05041 q -0.07561,-0.07561 -0.491468,-0.113416 -0.176425,0.113416 -0.289841,0.113416 l -0.554477,0.07561 q -0.100814,0 -0.126018,-0.189026 l -0.113415,0.03781 -0.05041,0.176425 q -0.05041,0.0252 -0.126018,0.0252 l -0.667893,-0.07561 -0.315044,0.07561 -0.516672,-0.100814 -0.252035,0.0252 -0.21423,-0.100814 -0.201628,0.0252 -0.201628,-0.05041 -0.239434,0.05041 -0.05041,-0.0252 q -0.05041,0.100814 -0.126017,0.163822 -0.07561,0.06301 -0.201629,0.264637 -0.28984,0.239434 -0.36545,0.579681 -0.07561,0.340248 -0.441062,0.378053 -0.0252,0.05041 -0.07561,0.126017 0.0252,0.0252 0.07561,0.21423 v 0.05041 q 0,0.302443 -0.491469,0.617486 -0.07561,0.453664 -0.189026,0.655292 -0.100814,0.201628 -0.138619,0.340247 -0.03781,0.126018 -0.21423,0.21423 l -0.05041,0.07561 v 0.365451 q 0,0.0252 -0.07561,0.163823 -0.07561,0.126017 -0.21423,0.378052 l -0.07561,0.126018 -0.100814,0.415858 q -0.252035,0.176424 -0.252035,0.491468 l 0.0252,0.718301 q 0,0.189026 -0.252035,0.390654 -0.239433,0.201628 -0.478867,0.201628 -0.617486,0 -0.844317,-0.743504 l -0.07561,-0.100814 q -0.264637,-0.214229 -0.264637,-0.642689 0,-0.491469 0.516672,-1.474406 l 0.831716,-1.499609 q 0.0126,-0.0252 0.327646,-0.226832 l 0.138619,0.05041 q 0.05041,-0.0252 0.05041,-0.100814 0,-0.0252 -0.138619,-0.365451 v -0.05041 q 0,-0.100814 0.08821,-0.126017 l 0.100814,-0.113416 -0.0252,-0.252035 q 0.226831,-0.340248 0.239433,-0.441062 l 0.126018,-0.28984 q 0.126017,-0.289841 0.201628,-0.302442 0,-0.504071 0.302442,-0.743504 l 0.100814,-0.21423 q 0.0378,-0.07561 0.163823,-0.08821 0.126017,-0.0126 0.126017,-0.0378 0,-0.05041 -0.0378,-0.126018 -0.0378,-0.07561 -0.0378,-0.126018 0,-0.126017 0.138619,-0.327645 0.151221,-0.201628 0.21423,-0.201628 l 0.189026,0.113415 v -0.07561 q -0.126017,-0.113416 -0.126017,-0.189026 0,-0.100815 0.113416,-0.264637 0.113416,-0.176425 0.138619,-0.252036 l 0.100814,-0.126017 q 0.0252,0 0.126018,-0.352849 0.100814,-0.35285 0.28984,-0.340248 v -0.126017 q 0,-0.126018 0.28984,-0.604885 l 0.667894,-1.184565 q 0.0252,-0.126017 0.201628,-0.441061 l -0.0252,-0.302443 q 0,-0.201628 0.226832,-0.630087 0.239433,-0.42846 0.390654,-0.42846 0.07561,0 0.100814,0.0252 0.03781,0.0252 0.06301,0.0252 l 0.201628,-0.0252 0.403257,0.365451 q 0.163822,0.13862 0.189026,0.491469 l 0.05041,0.07561 q 0.315044,0.579681 0.315044,0.819115 0,0.302442 -0.06301,0.466265 -0.05041,0.151221 -0.378053,0.365451 -0.315044,0.365451 -0.390654,0.642689 -0.07561,0.264637 -0.264637,0.50407 -0.176425,0.239434 -0.315044,0.705699 -0.138619,0.466265 -0.478867,0.693097 -0.0378,0.340247 -0.100814,0.57968 v 0.0252 q 0,0.07561 0.100814,0.07561 l 0.415858,-0.05041 q 0.07561,0 0.176425,0.03781 0.113416,0.03781 0.21423,0.03781 0.100814,0 0.252035,-0.100814 h 0.07561 q 0.05041,0 0.315044,0.126017 l 0.05041,-0.0252 q 0.07561,-0.126018 0.151221,-0.126018 l 0.491469,0.05041 0.239433,-0.0252 q 0.176425,-0.113416 0.541876,-0.126018 0.378053,-0.0126 0.516672,-0.07561 0.151221,-0.06301 0.264637,-0.07561 0.113416,-0.0126 0.28984,-0.100814 0.189027,-0.08821 0.315044,-0.08821 0.289841,0 0.806513,-0.264637 0.176424,0.05041 0.201628,0.05041 0.239433,0 0.390654,-0.201628 0.151221,-0.201628 0.340248,-0.226832 l 0.768707,-0.340247 q 0.100814,-0.03781 0.441062,-0.415858 l 0.226831,-0.151221 0.151221,-0.21423 q 0,-0.0252 0.239434,-0.151221 -0.05041,-0.0252 -0.07561,-0.07561 l 0.277239,-0.315044 q -0.0252,-0.126017 -0.0252,-0.151221 v -0.05041 q 0.126018,-0.189026 0.252035,-0.277238 0.13862,-0.08821 0.13862,-0.113416 l -0.126018,-0.151221 q 0.176425,-0.176425 0.176425,-0.226832 l -0.05041,-0.365451 0.05041,-0.64269 q 0,-0.491468 -0.06301,-0.630087 -0.06301,-0.151222 -0.08821,-0.302443 -0.239434,-0.466265 -0.667893,-0.768707 -0.03781,-0.0252 -0.03781,-0.08821 l -0.0252,-0.126018 v -0.05041 l -0.403256,0.05041 q -0.0252,0 -0.08821,-0.126017 -0.05041,-0.126018 -0.176424,-0.126018 l -0.176425,0.07561 h -0.0252 q -0.08821,0 -0.441061,-0.239434 -0.07561,-0.0252 -0.315044,-0.0252 l -0.176425,-0.07561 q -0.07561,-0.05041 -0.126017,-0.05041 h -0.07561 l -0.28984,0.05041 -0.64269,-0.05041 -0.390654,-0.07561 q -0.21423,0.151221 -0.277239,0.151221 -0.05041,0 -0.239433,-0.07561 h -0.0252 l -0.378052,0.05041 q -0.176425,0.0252 -0.289841,0.05041 h -0.07561 q -0.415858,0 -0.64269,-0.07561 h -0.07561 q -0.138619,0 -0.226831,0.100814 -0.08821,0.08821 -0.163823,0.08821 -0.05041,0 -0.126018,-0.163823 -0.163823,0.126018 -0.239433,0.163823 l -0.226832,-0.08821 q -0.05041,0.100814 -0.768707,0.21423 l -0.604884,0.126017 -0.100814,-0.0252 q -0.289841,0.100814 -0.478867,0.138619 -0.189026,0.03781 -0.340248,0.113416 -0.138619,0.06301 -0.302442,0.08821 -0.163823,0.0252 -0.478867,0.126018 L 36.72671,74.86607 q -0.239433,0.138619 -0.693096,0.327645 -0.453664,0.189027 -0.567079,0.302443 -0.113416,0.113415 -0.21423,0.113415 -0.0252,0 -0.151221,-0.0252 h -0.0252 q -0.113416,0 -0.378053,0.264637 -0.252035,0.252035 -0.441061,0.365451 -0.189026,0.113416 -0.340248,0.365451 -0.138619,0.239433 -0.655291,0.352849 -0.0252,0.0252 -0.05041,0.07561 v 0.201629 q -0.201628,0.113415 -0.365451,0.441061 l -0.07561,0.126018 -0.0252,0.239433 q 0,0.378053 -0.100814,0.403256 -0.100814,0.0252 -0.21423,0.113416 -0.100814,0.07561 -0.201628,0.07561 -0.21423,0 -0.403256,-0.378053 -0.189027,-0.378053 -0.189027,-0.453663 0,-0.743504 0.491469,-1.096353 l 0.93253,-0.680495 q 0.466265,-0.340248 0.793911,-0.340248 0.100814,-0.05041 0.21423,-0.239433 0.113415,-0.189026 0.516672,-0.277239 l 0.201628,0.07561 q 0.0252,0 0.07561,-0.100814 0.05041,-0.100814 0.151221,-0.163823 0.113416,-0.06301 0.189027,-0.163823 l 0.327645,-0.21423 q 0.0252,0 0.05041,-0.0252 l 0.189027,0.05041 q 0.0252,0 0.07561,-0.0252 0.05041,-0.0252 0.176425,-0.0252 0.05041,0 0.07561,-0.126018 0.05041,-0.06301 0.13862,-0.07561 z"
         style="-inkscape-font-specification:'Rage Italic, '"
         id="path77459" />
      <path
         d="m 46.921532,88.211331 -0.176425,-0.491469 q 0,-0.0252 0.100814,-0.21423 -0.126017,-0.100814 -0.126017,-0.151221 0,-0.126017 0.100814,-0.340247 -0.100814,-0.100814 -0.100814,-0.201628 l 0.07561,-0.264637 q 0.07561,-0.277239 0.201628,-0.352849 l 0.0252,-0.07561 q -0.100814,-0.07561 -0.100814,-0.138619 0,-0.0252 0.126017,-0.252035 l 0.0252,-0.176425 q 0.0252,-0.264637 0.315044,-0.415858 0,-0.579681 0.252035,-0.768707 0.264637,-0.189027 0.378053,-0.403256 0.126017,-0.21423 0.554477,-0.793911 0.239433,-0.151221 0.491468,-0.277239 0.08821,-0.327646 0.239434,-0.378053 0.151221,-0.06301 0.42846,-0.403256 0.28984,-0.352849 0.705698,-0.390654 l 0.126018,-0.05041 q 0.06301,-0.201628 0.352849,-0.390655 0.28984,-0.201628 0.516672,-0.28984 0.226831,-0.08821 0.378053,-0.201628 0.151221,-0.126018 0.378052,-0.226832 l 0.201628,-0.100814 q 0.08821,-0.06301 0.239434,-0.226832 l 0.100814,-0.0252 h 0.100814 q 0.126017,0 0.315044,-0.113416 0.201628,-0.113416 0.201628,-0.226832 l -0.176425,0.100814 h -0.08821 l -0.453663,0.163823 -0.630088,0.07561 q -0.151221,-0.13862 -0.302442,-0.163823 -0.567079,-0.126018 -0.567079,-0.919928 0,-0.579681 0.239433,-0.869522 0.252035,-0.302442 0.340247,-0.592282 0.100815,-0.289841 0.35285,-0.554478 0.252035,-0.264636 0.277238,-0.390654 0,-0.05041 0.151221,-0.126018 0.151222,-0.07561 0.21423,-0.239433 0.07561,-0.163823 0.441062,-0.378053 -0.06301,-0.08821 0.642689,-0.567079 0.05041,-0.05041 0.126018,-0.189026 0.07561,-0.151221 0.100814,-0.151221 0.239433,0 0.491469,-0.252035 l 0.441061,-0.390655 q 0.226832,-0.21423 0.567079,-0.365451 0.151221,-0.327646 0.340248,-0.327646 0.0252,0 0.176424,0.07561 h 0.05041 q 0.0252,0 0.239434,-0.226832 0.226831,-0.239433 0.403256,-0.340247 0.28984,0.100814 0.340247,0.100814 v -0.05041 q 0,-0.0252 0.0252,-0.100814 l 0.516672,-0.315044 0.252035,0.0252 q 0.340248,-0.252036 0.705699,-0.252036 0.0252,0 0.176424,0.05041 0.151221,-0.138619 0.466265,-0.138619 0.05041,0 0.151221,0.07561 0.100814,0.06301 0.151221,0.06301 0.06301,0 0.113416,-0.0252 0.05041,-0.0252 0.100814,-0.0252 0.176425,0 0.302442,0.126018 0.13862,0.126018 0.327646,0.138619 0.189026,0.0126 0.365451,0.42846 0.189026,0.403256 0.189026,0.768707 l -0.0252,0.264637 0.0252,0.201628 q -0.163822,0.302442 -0.189026,0.529274 -0.0126,0.21423 -0.201628,0.478867 l -0.100814,0.340247 q -0.176425,0.151221 -0.226832,0.252035 l -0.0252,0.0252 q -0.03781,0.390654 -0.315044,0.390654 h -0.100814 q -0.315044,0 -0.478867,-0.264636 -0.163823,-0.277239 -0.163823,-0.478867 0,-0.264637 0.252035,-0.491469 0.264637,-0.239433 0.541876,-0.239433 l 0.05041,-0.0252 q -0.0252,-0.05041 -0.0252,-0.151221 0,-0.100814 0.126018,-0.151221 l 0.08821,-0.06301 q 0.0126,-0.08821 0.06301,-0.201628 0.06301,-0.126017 0.06301,-0.176424 0,-0.163823 -0.163823,-0.478867 -0.163823,-0.327646 -0.302442,-0.327646 -0.05041,0 -0.100814,0.0252 -0.05041,0.0252 -0.07561,0.0252 l -0.21423,-0.0252 q -0.42846,0 -1.184565,0.441061 l -0.151221,0.05041 h -0.28984 q -0.0252,0 -0.100815,0.126018 -0.176424,0.06301 -0.327645,0.28984 -0.13862,0.226832 -0.441062,0.365451 -0.28984,0.126018 -0.390654,0.226832 l -0.21423,0.07561 q -0.151221,0.05041 -0.264637,0.226832 -0.113416,0.163823 -0.554477,0.50407 -0.541876,0.541876 -0.64269,0.743504 l -0.163823,0.100814 -0.327645,0.441062 q -0.315044,0.630087 -0.617487,0.79391 -0.05041,0 -0.277238,0.554478 -0.21423,0.541875 -0.315044,0.592282 -0.08821,0.05041 -0.08821,0.100814 0,0.0252 0.0252,0.100814 0.239433,-0.07561 0.403256,-0.176424 0.176425,-0.113416 0.252035,-0.113416 0.07561,0 0.302443,-0.151221 h 0.07561 q 0.113416,0 0.264637,-0.151221 h 0.176425 q 0.07561,-0.08821 0.28984,-0.189027 0.21423,-0.100814 0.604884,-0.315044 0.403257,-0.214229 0.93253,-0.365451 0.529274,-0.163822 0.945132,-0.277238 0.42846,-0.113416 0.504071,-0.113416 0.705698,0 0.705698,0.352849 0,0.64269 -0.567079,1.14676 -0.554477,0.50407 -0.680495,0.50407 l -0.201628,-0.0252 -0.907327,0.21423 q -0.138619,0.0252 -0.226831,0.100814 l -0.982937,0.541875 -0.441062,0.327646 -0.226832,0.06301 q -0.390654,0.352849 -0.567079,0.378053 l -0.214229,0.05041 q -0.226832,0.491468 -0.403257,0.491468 -0.06301,0 -0.189026,-0.100814 -0.0252,0.0252 -0.05041,0.100814 -0.0252,0.07561 -0.21423,0.315044 -0.176425,0.239433 -0.302442,0.277239 -0.113416,0.03781 -0.226832,0.08821 -0.05041,0.453663 -0.239433,0.453663 l -0.226832,-0.0252 v 0.163823 q 0,0.126017 -0.201628,0.21423 -0.189026,0.08821 -0.226832,0.151221 -0.03781,0.06301 -0.08821,0.06301 l -0.176424,-0.100814 -0.0252,0.05041 q 0.05041,0.100814 0.05041,0.163823 0,0.05041 -0.08821,0.151221 -0.08821,0.100814 -0.226832,0.390655 -0.138619,0.05041 -0.176424,0.07561 -0.100815,0.201628 -0.239434,0.415858 -0.100814,0 -0.189026,0.176425 -0.08821,0.176425 -0.13862,0.390654 -0.05041,0.201629 -0.214229,0.277239 -0.113416,0.151221 -0.239434,0.441062 -0.113416,0.28984 -0.151221,0.642689 -0.0378,0.340248 -0.201628,0.592283 0.0252,0.0252 0.0252,0.05041 l -0.0252,0.340247 q 0.0126,0.0126 0.08821,0.277239 0.08821,0.264637 0.201628,0.302442 0.126018,0.0378 0.201628,0.163823 0.05041,0 0.289841,0.07561 l 0.126017,-0.07561 q 0.126018,0 0.226832,0.07561 h 0.05041 l 0.21423,-0.05041 0.126018,0.05041 q 0.100814,0 0.252035,-0.100815 0,-0.0252 0.0378,-0.0252 l 0.176425,0.100814 q 0.252035,-0.151221 0.365451,-0.163823 0.126017,-0.0126 0.189026,-0.126017 0.07561,-0.113416 0.163823,-0.113416 0.0252,0 0.151221,0.07561 h 0.0378 q 0.0252,0 0.126018,-0.08821 0.100814,-0.100814 0.277238,-0.151221 0.189027,-0.05041 0.289841,-0.126018 0.100814,-0.07561 0.352849,-0.201628 0.239433,-0.0252 0.390655,-0.163823 l 0.126017,-0.05041 q 0.113416,-0.0252 0.189026,-0.151221 0.08821,-0.126017 0.667894,-0.516672 l 0.264636,-0.201628 q 0.365451,-0.315044 0.793911,-0.529274 0.441062,-0.226831 0.541876,-0.453663 l 0.100814,-0.151221 q 0.50407,-0.05041 0.592282,-0.289841 0.189027,-0.201628 0.415858,-0.277238 0.06301,-0.21423 0.07561,-0.239434 l 0.21423,-0.05041 0.05041,-0.05041 q 0.05041,-0.302442 0.176424,-0.340247 0.126018,-0.05041 0.340248,-0.239433 0.226832,-0.189027 0.42846,-0.302443 l 0.617486,-0.604884 q 0.06301,-0.06301 0.239433,-0.189026 0.0252,-0.100814 0.201628,-0.151221 l 0.13862,-0.13862 q 0.0252,-0.05041 0.138619,-0.113416 0.113416,-0.06301 0.327646,-0.327645 0.226831,-0.277239 0.516672,-0.277239 0.07561,0 0.07561,0.07561 0,0.844317 -0.264637,1.121556 -0.264637,0.264637 -0.907326,0.793911 -0.0252,0 -0.163823,0.189026 -0.138619,0.189026 -0.239433,0.21423 -0.03781,0.03781 -0.176425,0.226832 -0.138619,0.189026 -0.239433,0.189026 -0.113416,0 -0.289841,0.264637 l -0.302442,0.201628 -0.239433,0.264637 q -0.100814,0.07561 -0.189027,0.100814 -0.08821,0.0252 -0.126017,0.138619 -0.03781,0.113416 -0.189027,0.21423 -0.138619,0.08821 -0.453663,0.390655 l -0.529274,0.478866 q -0.113416,0.113416 -0.264637,0.189027 l -0.541875,0.541875 q -0.176425,0.239434 -0.441062,0.239434 h -0.201628 q -0.0252,-0.0252 -0.126017,-0.100814 l -0.07561,-0.0252 q -0.113416,0 -0.113416,0.05041 l 0.0252,0.327646 q -0.07561,0.05041 -0.126018,0.05041 l -0.07561,0.0252 q -0.201629,0.35285 -0.478867,0.554478 -0.264637,0.201628 -0.302442,0.239433 -0.03781,0.03781 -0.151221,0.06301 -0.100815,0.0252 -0.21423,0.113416 -0.113416,0.08821 -0.365451,0.189026 -0.239434,0.08821 -0.390655,0.176425 -0.138619,0.08821 -0.163823,0.08821 -0.100814,0 -0.252035,-0.100814 -0.163823,0.176425 -0.226831,0.352849 -0.06301,0.163823 -0.163823,0.163823 -0.07561,0 -0.64269,0.201628 -0.554477,0.189026 -0.64269,0.289841 l -0.315043,-0.07561 q -0.189027,0.100814 -0.390655,0.100814 l -0.226832,-0.05041 q -0.239433,0.07561 -0.264636,0.07561 L 48.206911,89.49671 q -0.151221,-0.07561 -0.176425,-0.126018 -0.0252,-0.05041 -0.07561,-0.05041 -0.415858,-0.214229 -0.554478,-0.478866 -0.126017,-0.264637 -0.327645,-0.403257 z"
         style="-inkscape-font-specification:'Rage Italic, '"
         id="path77461" />
      <path
         d="m 62.68633,79.327092 0.07561,-0.277239 0.315044,-0.340247 q 0.0252,-0.0252 0.0252,-0.05041 v -0.07561 q 0,-0.189026 0.390654,-0.415858 0.0252,-0.315044 0.42846,-0.466265 l 0.06301,-0.05041 v -0.100814 q 0,-0.189026 0.264637,-0.252035 0.277238,-0.06301 0.42846,-0.239434 0.226831,-0.05041 0.7183,-0.541875 0.05041,-0.100814 0.126017,-0.100814 l 0.289841,-0.0252 q 0.365451,-0.390654 0.466265,-0.403256 0.100814,-0.0126 0.21423,-0.08821 0.113415,-0.07561 0.327645,-0.113416 0.06301,-0.08821 0.894725,-0.516672 h 0.264637 q 0.05041,0 0.163823,-0.100814 0.126017,-0.100814 0.365451,-0.138619 0.252035,-0.03781 0.655291,-0.163823 0.415858,-0.13862 0.667893,-0.189027 l 0.239434,-0.126017 h 0.390654 l 0.126018,-0.100814 0.79391,-0.100814 0.806513,-0.189027 0.226832,0.0252 0.163822,-0.0252 0.277239,0.06301 q 0.05041,0 0.163823,-0.05041 0.126018,-0.06301 0.226832,-0.06301 0.378052,0 0.680494,0.08821 0.315044,0.08821 0.478867,0.113415 0.163823,0.0126 0.264637,0.06301 0.100814,0.05041 0.126018,0.05041 l 0.327645,-0.0252 q 0.0252,0 0.100814,0.08821 0.08821,0.08821 0.239434,0.138619 h 0.226832 q 0.0252,0.0252 0.07561,0.0252 0.151221,0.126017 0.541876,0.315044 0.277238,0.21423 0.28984,0.226831 0.100814,-0.0378 0.781309,0.529274 0.680495,0.567079 0.869521,0.869521 l 0.264637,0.340248 0.126018,0.327646 0.126017,0.214229 q 0.201628,0.516673 0.365451,1.209769 l 0.100814,0.252035 q 0.0252,0.0252 0.0252,0.113416 l -0.07561,0.352849 0.100814,0.466265 q 0,0.151221 -0.100814,0.441062 0.05041,0.126017 0.05041,0.151221 0,0.0252 -0.100814,0.403256 -0.100814,0.365451 -0.100814,0.42846 l 0.05041,0.252035 q 0,0.05041 -0.113416,0.163823 -0.100814,0.100814 -0.100814,0.151221 0,0.163823 -0.08821,0.315044 -0.08821,0.151221 -0.113416,0.201628 l -0.21423,0.352849 q -0.05041,0.189027 -0.126017,0.21423 -0.07561,0.0252 -0.07561,0.176425 -0.0252,0.0252 -0.176424,0.151221 l -0.126018,0.189026 -0.516672,0.541876 q -0.07561,0.277238 -0.604884,0.642689 l -0.151221,0.151222 q -0.680495,0.554477 -0.831716,0.655291 -0.151221,0.100814 -0.252036,0.226832 -0.100814,0.126017 -0.327645,0.252035 -0.03781,0.06301 -0.315044,0.264637 l -0.176425,-0.0252 q -0.08821,0.151221 -0.21423,0.21423 -0.126017,0.06301 -0.189026,0.113416 -0.06301,0.05041 -0.08821,0.05041 -0.0252,0 -0.113416,-0.0252 -0.126018,0.189027 -0.352849,0.277239 -0.21423,0.08821 -0.327646,0.163823 -0.113416,0.07561 -0.138619,0.07561 l -0.201628,-0.07561 q 0,0.277238 -0.201629,0.302442 -0.201628,0.0252 -0.340247,0.113416 l -0.264637,-0.0252 q -0.466265,0.466265 -1.335786,0.466265 -0.163823,0.201628 -0.21423,0.201628 l -0.226832,-0.05041 q -0.100814,0.05041 -0.176424,0.05041 -0.06301,0 -0.466265,0.126018 -0.151221,-0.100814 -0.365451,-0.100814 l 0.0252,0.21423 q 0,0.126017 -0.340247,0.126017 -0.126018,0 -0.277239,-0.07561 -0.151221,0.05041 -0.189026,0.05041 -0.07561,0 -0.113416,-0.08821 -0.03781,-0.100814 -0.06301,-0.100814 -0.252035,0.415857 -0.882123,0.415857 -0.06301,0 -0.7183,0.163823 l -0.151221,0.0252 q -0.05041,0 -0.100814,-0.0252 l -0.21423,-0.0252 q -0.05041,0 -0.201628,-0.06301 -0.07561,0.138619 -0.126018,0.138619 -0.239433,0 -0.592282,0.07561 -0.113416,-0.06301 -0.529274,-0.08821 -0.403256,-0.03781 -0.504071,-0.151221 h -0.0252 q -0.0252,0 -0.08821,0.0252 h -0.05041 q -0.05041,0 -0.126018,-0.0378 -0.07561,-0.03781 -0.252035,-0.06301 -0.163823,-0.0252 -0.340248,-0.264637 -0.176424,-0.252035 -0.176424,-0.42846 0,-0.239433 0.201628,-0.441061 0.201628,-0.201628 0.415858,-0.201628 0.100814,0 0.277239,0.07561 h 0.138619 l 0.201628,0.0252 0.07561,-0.0252 q -0.05041,-0.176424 -0.05041,-0.189026 0,-0.378053 0.264636,-0.64269 l 0.176425,-0.491468 q 0.0252,-0.05041 0.151221,-0.13862 0.126018,-0.08821 0.126018,-0.239433 l 0.113416,-0.264637 0.0252,-0.176425 0.126018,-0.176424 q 0.100814,-0.138619 0.126017,-0.264637 0.0252,-0.126018 0.176425,-0.176425 0,-0.264637 0.176424,-0.428459 0.189027,-0.163823 0.189027,-0.252036 0,-0.252035 0.176424,-0.277238 0.06301,-0.05041 0.06301,-0.100814 0,-0.05041 -0.06301,-0.163823 0.08821,-0.252035 0.239434,-0.277239 0.163823,-0.0252 0.201628,-0.05041 -0.100814,-0.0252 -0.100814,-0.126017 0,-0.113416 0.07561,-0.21423 l 0.126018,-0.327646 q 0.06301,-0.163823 0.315044,-0.315044 -0.07561,-0.07561 -0.07561,-0.126017 0,-0.0252 0.07561,-0.100815 l 0.176425,0.05041 q 0,-0.0252 0.0252,-0.0252 l 0.0252,-0.28984 -0.0252,-0.176425 q 0,-0.0252 0.28984,-0.163823 l 0.05041,-0.126017 q -0.176424,0 -0.340247,-0.05041 -0.239433,0.100814 -0.352849,0.176424 -0.0252,0.0378 -0.21423,0.0378 h -0.07561 q -0.0252,0 -0.226831,-0.06301 -0.05041,0.0252 -0.113416,0.126017 -0.05041,0.08821 -0.07561,0.08821 l -0.378052,-0.126017 q -0.05041,0 -0.201628,0.138619 -0.13862,0.13862 -0.264637,0.13862 -0.06301,0 -0.21423,-0.07561 -0.100814,0.07561 -0.478867,0.07561 -0.163823,0 -0.340247,0.07561 l -0.201629,-0.0252 -0.163822,0.0252 q -0.05041,0 -0.378053,-0.226832 -0.189027,0.05041 -0.239434,0.05041 l -0.201628,-0.100815 q -0.201628,-0.100814 -0.327645,-0.113415 -0.113416,-0.0126 -0.226832,-0.06301 -0.100814,-0.05041 -0.113416,-0.05041 -0.0126,-0.0126 -0.113416,-0.126018 -0.100814,-0.113416 -0.226831,-0.163823 -0.126018,-0.05041 -0.126018,-0.214229 l -0.05041,-0.56708 q 0,-0.07561 0.06301,-0.201628 0.06301,-0.126017 0.06301,-0.226831 0,-0.163823 0.201628,-0.264637 z m 2.999218,1.260176 h 0.05041 q 0.201628,0 0.201628,0.163822 0,0.05041 -0.05041,0.126018 0.05041,0.0252 0.07561,0.0252 0.05041,0 0.176424,-0.189026 0.126018,-0.201628 0.655292,-0.201628 0.0252,0 0.06301,0.0252 0.03781,0.0252 0.06301,0.0252 0.0252,0 0.113416,-0.07561 0.08821,-0.07561 0.138619,-0.07561 l 0.56708,-0.126018 q 0.806512,-0.126017 0.806512,-0.315044 l -0.0252,-0.176424 q 0.05041,-0.100814 0.226831,-0.302442 0.189027,-0.21423 0.189027,-0.441062 l 0.07561,-0.28984 v -0.126018 q 0,-0.340247 0.466265,-0.415858 v -0.0252 l -0.126017,-0.390655 0.0252,-0.05041 q 0.176425,-0.08821 0.176425,-0.126017 0,-0.0252 -0.126018,-0.151222 -0.113416,-0.138619 -0.113416,-0.781309 0,-0.36545 0.415858,-0.36545 0.541876,0 0.970336,0.478866 0.428459,0.478867 0.428459,1.07115 0,0.441061 -0.441061,1.323184 l -0.07561,0.277239 h 0.201628 l 0.315044,-0.05041 0.226832,0.0252 q 0.163823,0 0.378053,-0.100814 0.21423,-0.100814 0.390654,-0.126017 0.189027,-0.0252 0.365451,-0.151221 0.365451,-0.08821 0.617486,-0.126018 0.264637,-0.03781 0.491469,-0.163823 h 0.06301 q 0.0252,0 0.100814,0.100814 h 0.0252 q 0.0252,0 0.07561,-0.0252 0.07561,-0.176425 0.327645,-0.264637 0.264637,-0.100814 0.340248,-0.201628 l 0.21423,-0.226832 q 0,-0.0252 0.403256,-0.264637 0.415858,-0.252035 0.617486,-0.252035 0.390655,0 0.466265,0.302442 l 0.07561,0.21423 v 0.0252 q 0,0.315044 -0.504071,0.768707 -0.491468,0.453663 -1.310582,0.655291 -0.819115,0.201628 -0.995539,0.201628 -0.07561,0 -0.151221,-0.126017 l -0.264637,0.07561 -0.07561,0.126018 q 0,0.0252 -0.05041,0.0252 L 72.805541,79.81856 h -0.05041 q -0.126018,0.113416 -0.478867,0.226832 -0.340247,0.113416 -0.529274,0.189026 h -0.252035 q -0.201628,0 -0.554477,0.126018 l -0.226832,0.0252 q -0.441061,0.07561 -0.491468,0.100814 -0.05041,0.0252 -0.189027,0.340248 l -0.315044,0.693097 q -0.06301,0.151221 -0.214229,0.390654 l -0.189027,0.302442 q -0.0252,0 -0.0252,0.0252 l 0.06301,0.189026 v 0.0252 q -0.781309,1.045945 -1.07115,1.814653 -0.28984,0.768707 -0.642689,1.398795 -0.340248,0.617486 -0.42846,0.856919 -0.08821,0.239434 -0.163823,0.378053 -0.07561,0.138619 -0.07561,0.163823 0,0.06301 0.07561,0.06301 h 0.100814 q 0.138619,-0.113416 0.277239,-0.126018 0.138619,-0.0126 0.28984,-0.03781 l 0.138619,0.05041 h 0.201629 q 0.0126,0 0.214229,-0.126018 l 0.100814,0.0252 0.226832,-0.0252 0.21423,0.0252 q 0.0252,0 0.08821,-0.03781 0.06301,-0.03781 0.163823,-0.05041 0.100814,-0.0126 0.151221,-0.05041 0.05041,-0.03781 0.07561,-0.03781 l 0.113416,0.0252 q 0.0252,0.0252 0.05041,0.0252 0.07561,0 0.151221,-0.201628 l 0.226831,0.07561 q 0,-0.189027 0.113416,-0.189027 0.352849,0 0.403256,-0.0252 l 0.13862,0.0252 h 0.0252 q 0.0252,0 0.151221,-0.07561 l 1.373592,-0.516672 q 0.151221,-0.0252 0.567079,-0.327646 l 0.252035,-0.113416 q 0.264637,-0.126017 0.340248,-0.201628 0.07561,-0.07561 0.126017,-0.07561 0.365451,0 0.491469,-0.315043 0.05041,-0.0252 0.201628,-0.151222 l 0.126017,-0.0252 q 0.189027,-0.05041 0.415858,-0.226832 l 0.239434,-0.189026 q 0.07561,-0.07561 0.277238,-0.100814 0.466265,-0.567079 0.667894,-0.667893 l 0.189026,-0.100814 q 0.0252,-0.21423 0.176424,-0.340248 0.151222,-0.126017 0.189027,-0.277238 0.05041,-0.163823 0.151221,-0.163823 h 0.07561 q 0.05041,0 0.05041,-0.05041 l -0.0252,-0.226832 q 0,-0.21423 0.252035,-0.21423 v -0.07561 l -0.0252,-0.201628 v -0.0252 q 0,-0.21423 0.189026,-0.277239 0.201628,-0.06301 0.201628,-0.239433 0,-0.138619 -0.03781,-0.28984 -0.03781,-0.151222 -0.03781,-0.176425 0,-0.239433 0.340247,-0.390655 l 0.0252,-0.05041 q 0,-0.0252 -0.100815,-0.100814 -0.08821,-0.07561 -0.08821,-0.151221 0,-0.03781 0.05041,-0.163823 0.05041,-0.126017 0.05041,-0.151221 0,-0.0252 -0.06301,-0.126017 -0.06301,-0.100814 -0.06301,-0.189027 0,-0.100814 0.07561,-0.252035 0.07561,-0.151221 0.07561,-0.201628 0,-0.113416 -0.0252,-0.189026 -0.151221,-0.07561 -0.151221,-0.176425 v -0.05041 l 0.0252,-0.100814 -0.0252,-0.163823 0.05041,-0.151221 q -0.07561,-0.226831 -0.126017,-0.441061 -0.05041,-0.226832 -0.176425,-0.35285 -0.113416,-0.138619 -0.113416,-0.189026 v -0.0252 l 0.06301,-0.176425 q 0,-0.0252 -0.08821,-0.05041 -0.64269,-0.85692 -1.701238,-1.297981 -1.058547,-0.441062 -1.083751,-0.441062 l -0.277238,0.0252 q -0.21423,-0.100814 -0.239434,-0.100814 l -0.126017,0.0252 q -0.0252,0.0252 -0.05041,0.0252 -0.05041,0 -0.226832,-0.100814 l -0.315044,0.0252 -0.315044,-0.0252 q -0.592282,-0.05041 -0.945132,0.05041 l -1.00814,0.163823 q -0.05041,0 -0.415858,0.126017 -0.201628,0.126018 -0.831716,0.252035 h -0.302442 q -0.0252,0 -0.151222,0.126018 -0.126017,0.126018 -0.806512,0.315044 -0.176425,0.176425 -0.302442,0.21423 -0.113416,0.0252 -0.163823,0.08821 -0.05041,0.06301 -0.100814,0.06301 h -0.176425 q -0.138619,0 -0.302442,0.201628 -0.163823,0.201628 -0.756105,0.466265 l -0.13862,0.126018 -0.252035,0.138619 q -0.07561,0.0252 -0.126017,0.100814 l -0.05041,0.05041 q -0.315044,0.08821 -0.403257,0.28984 -0.08821,0.201629 -0.239433,0.239434 -0.138619,0.03781 -0.176425,0.189026 -0.0378,0.151221 -0.189026,0.252035 -0.151221,0.100814 -0.491469,0.592283 -0.340247,0.478867 -0.340247,0.705698 0,0.163823 0.151221,0.466265 0.151221,0.302443 0.441062,0.302443 0.239433,0 0.365451,0.06301 0.126017,0.05041 0.226831,0.05041 0.415858,0 0.680495,-0.163822 z"
         style="-inkscape-font-specification:'Rage Italic, '"
         id="path77463" />
      <path
         d="m 85.067053,72.774178 0.07561,-0.126018 q 0.08821,-0.163822 0.277238,-0.163822 0.0252,0 0.189027,0.05041 -0.0252,-0.0252 -0.0252,-0.07561 0,-0.151221 0.151221,-0.151221 h 0.05041 q 0.0252,0 0.289841,-0.07561 l 0.869521,-0.100814 q 0.315044,0 0.781309,0.151221 h 0.176425 l 0.340247,0.100814 q 0.226832,0.21423 0.327646,0.239434 0.100814,0.0252 0.100814,0.07561 0.07561,0.126018 0.315044,0.302443 l 0.365451,0.390654 0.05041,0.100814 q 0.100814,0.189026 0.239433,0.403256 0.151221,0.201628 0.151221,0.655292 l -0.06301,0.151221 q 0.138619,0.06301 0.138619,0.113416 l -0.07561,0.453663 v 0.390654 q 0,0.239434 -0.07561,0.415858 -0.06301,0.176425 -0.06301,0.390655 0,0.05041 -0.176425,0.277239 v 0.0252 l 0.05041,0.340247 q 0,0.05041 -0.113415,0.163823 -0.113416,0.113416 -0.113416,0.176425 0,0.264637 -0.13862,0.403256 -0.0126,0.264637 -0.302442,0.667893 -0.28984,0.390655 -0.365451,0.667893 -0.06301,0.277239 -0.340247,0.705699 -0.100814,0.315044 -0.13862,0.453663 -0.0378,0.138619 -0.277238,0.352849 -0.226832,0.201628 -0.226832,0.541876 -0.07561,0.252035 -0.352849,0.378053 l -0.28984,0.264637 v 0.151221 q 0,0.264637 -0.302443,0.567079 l -0.428459,0.882123 q -0.126018,0.252035 -0.327646,0.252035 l -0.05041,0.05041 q -0.0378,0.365451 -0.126018,0.478867 -0.08821,0.113416 -0.189026,0.264637 -0.100814,0.151221 -0.189026,0.277238 -0.08821,0.113416 -0.189027,0.378053 -0.100814,0.252035 -0.28984,0.441062 l -0.126018,0.277238 v 0.100814 q 0,0.340248 -0.226831,0.340248 -0.03781,0 -0.13862,-0.0252 h -0.0252 q 0.07561,0.264637 0.07561,0.390655 0,0.07561 -0.352849,0.79391 l -0.05041,0.189027 v 0.201628 q -0.189026,0.201628 -0.252035,0.365451 -0.06301,0.151221 -0.201628,0.21423 -0.13862,0.06301 -0.13862,0.08821 l 0.05041,0.07561 v 0.05041 l -0.08821,0.390654 0.06301,0.466265 q 0,0.05041 -0.113416,0.264637 0.415858,0.302442 0.415858,0.64269 0,0.541875 -0.441061,0.642689 h -0.07561 l -0.252035,0.0252 q -0.441062,0 -0.617486,-0.126018 -0.176425,-0.126017 -0.441062,-0.390654 l -0.163822,-0.100814 q -0.07561,-0.05041 -0.126018,-0.189027 l -0.126018,-0.126017 q -0.264637,-0.327646 -0.264637,-1.058548 0,-0.07561 0.113416,-0.176425 l 0.0252,-0.07561 -0.0252,-0.239433 q 0,-0.06301 0.277239,-0.819115 l 0.365451,-0.756105 q 0.302442,-0.617486 0.415858,-0.7183 0.03781,-0.201628 0.126017,-0.466265 l 0.07561,-0.05041 q 0.0252,-0.176425 0.189026,-0.378053 0.176425,-0.21423 0.252036,-0.50407 0.176424,-0.0252 0.176424,-0.07561 0,-0.0252 -0.0252,-0.100814 v -0.05041 q 0,-0.226832 0.176424,-0.390655 0.189027,-0.176424 0.277239,-0.403256 0.08821,-0.239433 0.201628,-0.352849 0.126018,-0.113416 0.226832,-0.403256 0.08821,-0.08821 0.252035,-0.126018 0.163823,-0.05041 0.163823,-0.126017 0,-0.0252 -0.113416,-0.239434 0.340247,-0.781309 0.730902,-1.209768 0.05041,-0.07561 0.100814,-0.239434 0.05041,-0.176424 0.201628,-0.252035 0.138619,-0.42846 0.327646,-0.705698 0.189026,-0.277239 0.340247,-0.604885 0.163823,-0.340247 0.390655,-0.340247 l 0.05041,-0.07561 -0.0252,-0.264637 q 0,-0.0126 0.100814,-0.239433 0.113416,-0.226832 0.201628,-0.252035 0.08821,-0.0252 0.21423,-0.201628 L 86.843901,78.09212 q 0.05041,-0.03781 0.08821,-0.126018 0.03781,-0.08821 0.08821,-0.08821 0.315044,-0.176425 0.315044,-0.378053 0,-0.05041 -0.0252,-0.163823 v -0.05041 q 0,-0.07561 0.226832,-0.327646 0.239433,-0.264637 0.239433,-0.630087 0.0252,-0.176425 0.151221,-0.327646 0.126018,-0.151221 0.126018,-0.252035 0,-0.08821 0.07561,-0.189027 l -0.05041,-0.315044 q 0.239434,-0.365451 0.239434,-0.667893 0,-0.0252 -0.06301,-0.126017 -0.06301,-0.100814 -0.06301,-0.264637 0,-0.07561 -0.138619,-0.201628 l -0.05041,-0.126018 Q 87.612608,73.71931 87.499192,73.605894 87.385777,73.492478 86.869105,73.492478 l -0.226832,0.05041 -0.189026,-0.05041 q -0.07561,0.05041 -0.126018,0.05041 h -0.0252 l -0.126017,-0.0252 q -0.21423,0 -0.604884,0.176424 -0.378053,0.163823 -0.504071,0.163823 -0.390654,0 -0.529274,0.226832 -0.126017,0.21423 -0.201628,0.21423 l -0.126017,-0.05041 h -0.0252 q -0.100814,0 -0.176424,0.352849 l -0.0252,0.05041 q -0.491468,0.277238 -0.781309,0.567079 l -0.819114,0.856919 q -0.415858,0.42846 -0.453663,0.579681 -0.03781,0.13862 -0.252035,0.277239 -0.201629,0.365451 -0.201629,0.516672 0,0.327646 -0.138619,0.453663 -0.138619,0.113416 -0.138619,0.189027 0,0.05041 0.0252,0.100814 0.0252,0.05041 0.100814,0.277238 v 0.06301 q 0,0.151221 -0.100814,0.264637 -0.08821,0.113416 -0.08821,0.138619 0,0.03781 0.21423,0.264637 0.226831,0.226832 0.226831,0.327646 0,0.340247 -0.302442,0.630088 -0.28984,0.277238 -0.617486,0.277238 -0.28984,0 -0.466265,-0.138619 -0.163823,-0.138619 -0.163823,-0.844318 l 0.0252,-0.327645 0.113416,-0.365451 -0.0252,-0.390655 q 0,-0.05041 0.239434,-0.42846 0.239433,-0.390654 0.302442,-0.567079 0.226831,-0.743503 0.693096,-1.14676 0.100814,-0.07561 0.100814,-0.176424 0,-0.176425 0.151221,-0.340248 0,-0.05041 0.176425,-0.201628 0.176425,-0.151221 0.21423,-0.315044 0.05041,-0.176424 0.226832,-0.226831 0.189026,-0.05041 0.264637,-0.340248 0.28984,-0.352849 0.693096,-0.567079 0.189027,-0.352849 0.441062,-0.441061 l 0.340247,-0.226832 0.07561,-0.126018 q 0.07561,-0.07561 0.201628,-0.126017 0.126017,-0.06301 0.239433,-0.189026 0.352849,-0.176425 0.466265,-0.176425 z"
         style="-inkscape-font-specification:'Rage Italic, '"
         id="path77465" />
      <path
         d="m 90.737841,82.779973 0.0252,-0.277238 v -0.100814 l 0.113416,-0.340248 q 0.252035,-0.768707 0.529274,-1.134158 0.28984,-0.365451 0.315044,-0.516672 0.0252,-0.151221 0.189026,-0.327646 0.176425,-0.189026 0.252035,-0.340247 l 0.100814,-0.151221 q 0,-0.226832 0.277239,-0.491469 0.28984,-0.277239 0.315044,-0.42846 0.03781,-0.151221 0.390654,-0.554477 0,-0.113416 0.252036,-0.403256 0.264637,-0.302442 0.340247,-0.42846 0.07561,-0.126017 0.315044,-0.226832 0.05041,-0.264636 0.252035,-0.441061 0.201628,-0.176425 0.302442,-0.302442 0.113416,-0.13862 0.264637,-0.21423 l 0.126018,-0.151221 q 0.08821,-0.126018 0.415858,-0.378053 0.340247,-0.252035 0.441061,-0.378053 l 0.315044,-0.126017 0.05041,-0.05041 0.0252,-0.151221 q 0.05041,-0.0252 0.176424,-0.163823 0.126018,-0.151221 0.226832,-0.226832 l 0.340248,-0.340247 q 0.201628,-0.126018 0.340247,-0.201628 0.151221,-0.07561 0.189026,-0.189027 0.03781,-0.126017 0.453664,-0.252035 0.226831,-0.302442 0.642689,-0.352849 0.151221,-0.264637 0.907327,-0.579681 0.75611,-0.327646 1.05855,-0.327646 0.27724,0 0.51667,0.07561 l 0.20163,-0.0252 q 0.0504,0.0252 0.23943,0.100814 h 0.0252 l 0.10082,0.0252 q 0.44106,0.50407 0.44106,1.071149 0,0.264637 -0.0252,0.630088 -0.13862,0.441062 -0.13862,0.705699 0,0.176424 -0.12602,0.428459 l -0.10081,0.340248 q -0.0756,0.743504 -0.51668,0.743504 -0.69309,0 -0.69309,-0.64269 0,-0.415858 0.35285,-0.693097 0.61748,-0.390654 0.61748,-1.260176 0,-0.239433 -0.20163,-0.239433 h -0.0252 q -0.12602,0.07561 -0.20163,0.07561 l -0.23943,-0.07561 h -0.0252 l -0.10082,0.05041 q -0.0252,-0.0252 -0.18902,0.08821 -0.15123,0.100814 -0.42846,0.189027 -0.264642,0.08821 -0.54188,0.390654 -0.264637,0.289841 -0.604885,0.42846 -0.327645,0.126018 -0.57968,0.478867 0,0.0252 -0.0252,0.0252 l -0.264637,-0.0252 q -0.05041,0 -0.176424,0.315044 l -0.07561,0.05041 h -0.08821 q -0.05041,0.0252 -0.176425,0.151221 l -0.151221,0.126017 q -0.07561,0.239434 -0.28984,0.340248 l -0.151222,0.264637 q -0.100814,0.05041 -0.239433,0.151221 -0.126017,0.100814 -0.21423,0.138619 -0.08821,0.03781 -0.176424,0.289841 -0.08821,0.239433 -0.579681,0.415858 -0.05041,0.05041 -0.05041,0.08821 0,0.0252 0.0252,0.100814 v 0.0252 q 0,0.252035 -0.655291,0.768707 v 0.05041 q 0,0.138619 -0.21423,0.529274 -0.21423,0.378052 -0.378053,0.529273 -0.151221,0.13862 -0.151221,0.189027 v 0.176424 q 0,0.201628 -0.176424,0.252035 -0.163823,0.13862 -0.239434,0.21423 0,0.252036 -0.21423,0.390655 -0.21423,0.126017 -0.252035,0.201628 l 0.08821,0.151221 v 0.05041 q 0,0.365451 -0.365451,0.466265 v 0.05041 q 0,0.126018 -0.189026,0.378053 -0.176424,0.239433 -0.327646,0.327646 -0.0252,0 -0.05041,0.05041 l 0.05041,0.352849 q -0.327645,0.693096 -0.642689,1.083751 -0.126018,0.0252 -0.126018,0.113416 l 0.05041,0.201628 v 0.05041 q 0,0.315044 -0.113416,0.441061 -0.100814,0.126018 -0.100814,0.151221 l 0.07561,0.176425 q 0,0.113416 -0.100814,0.163823 -0.100814,0.05041 -0.100814,0.100814 0,0.0252 0.0252,0.07561 v 0.07561 q 0,0.100814 -0.176424,0.705698 v 0.176425 l -0.05041,0.176425 q 0,0.0252 0.06301,0.163823 0.06301,0.126017 0.06301,0.226831 l -0.07561,0.176425 q -0.0252,0.0252 -0.0252,0.07561 0,0.239434 0.100814,0.617486 0.113416,0.365451 0.365451,0.365451 0.42846,0 0.516672,-0.100814 0.100814,-0.100814 0.541876,-0.441061 0.453663,-0.352849 0.592282,-0.491469 0.151222,-0.151221 0.226832,-0.189026 0.08821,-0.0378 0.693097,-0.781309 0.604884,-0.756105 1.058547,-1.348388 0.0252,-0.0252 0.06301,-0.163823 0.05041,-0.151221 0.277239,-0.365451 0.239433,-0.226832 0.693096,-0.869521 l 0.239434,-0.226832 q 0.277239,-0.390654 0.315044,-0.478867 0.05041,-0.100814 0.189026,-0.189026 0.13862,-0.100814 0.21423,-0.252035 0.07561,-0.163823 0.21423,-0.189026 0.151221,-0.0252 0.151221,-0.126018 l -0.0252,-0.264637 q 0.176425,-0.277239 0.403257,-0.365451 -0.0252,-0.05041 -0.0252,-0.151221 0,-0.302442 0.252035,-0.378053 0.264637,-0.08821 0.277239,-0.176424 0.0126,-0.08821 0.06301,-0.21423 l 0.03781,-0.100814 q 0.100814,-0.21423 0.201628,-0.315044 l 0.151221,-0.226832 0.264637,-0.264637 q 0,-0.0252 0.0252,-0.05041 l -0.05041,-0.28984 q 0,-0.07561 0.327645,-0.201628 l 0.0252,-0.05041 v -0.226832 q 0,-0.113416 0.239435,-0.239433 0.063,-0.264637 0.25203,-0.365451 0.0252,-0.327646 0.22684,-0.554478 0.21422,-0.239433 0.36545,-0.466265 0.16382,-0.239433 0.46626,-0.239433 0.16382,0 0.57968,0.239433 0.42846,0.226832 0.42846,0.667894 0,0.05041 -0.12602,0.302442 -0.12601,0.252035 -0.23943,1.00814 -0.26464,0.705699 -0.35285,0.831716 0.0756,0.176425 0.0756,0.277239 0,0.163823 -0.21423,0.390654 -0.0378,0.239434 -0.10081,0.390655 v 0.201628 q 0,0.239433 -0.35285,0.340247 -0.0378,0 -0.10082,0.315044 -0.063,0.302443 -0.063,0.327646 l 0.0504,0.340248 q 0,0.176424 -0.10081,0.277238 -0.10082,0.100814 -0.27724,0.352849 -0.16382,0.239434 -0.16382,0.289841 0,0.21423 -0.0504,0.340247 -0.0504,0.126018 -0.063,0.277239 -0.0126,0.138619 -0.11341,0.264637 -0.10082,0.126017 -0.12602,0.201628 0.0756,0.163823 0.0756,0.189026 0,0.07561 -0.0756,0.302443 -0.138621,0.126017 -0.138621,0.214229 0,0.0126 0.08821,0.176425 -0.0252,0.151221 -0.138618,0.415858 l -0.0252,0.07561 0.05041,0.7183 q 0,0.0252 -0.100814,0.151221 v 0.06301 q 0,0.126017 0.07561,0.126017 0.05041,0 0.390658,-0.189026 0.34024,-0.201628 0.37805,-0.277239 0.11341,-0.226832 1.04594,-0.743504 l 1.63823,-1.386193 q 0.16383,-0.163823 0.23944,-0.163823 0.21423,0 0.21423,0.201628 0,0.289841 -0.13862,0.667894 v 0.189026 q 0,0.327646 -0.35285,0.617486 -0.0252,0.100814 -0.17643,0.163823 -0.13862,0.06301 -0.20162,0.189026 -0.063,0.113416 -0.28984,0.21423 -0.21423,0.100814 -0.34025,0.226832 l -0.10082,0.05041 q -0.18902,0.08821 -0.25203,0.277238 -0.063,0.189027 -0.13862,0.189027 -0.28984,0 -0.78131,0.491468 l -0.15122,0.05041 -0.15122,0.100814 q -0.12602,0.113416 -0.20163,0.113416 l -0.18903,-0.0252 -0.66789,0.126017 q -0.151221,0 -0.28984,-0.239433 h -0.201628 l -0.176425,-0.201628 q -0.302442,-0.100814 -0.541875,-0.680495 -0.239434,-0.592283 -0.239434,-1.020742 0,-0.264637 0.113416,-0.819115 0.126018,-0.554477 0.126018,-0.819114 0,-0.277239 0.100814,-0.541876 0.100814,-0.277238 0.100814,-0.453663 0,-0.05041 0.100814,-0.340247 0.100814,-0.302442 0.100814,-0.617486 0,-0.0252 -0.05041,-0.0252 -0.655292,0.957734 -0.882123,1.083751 -0.08821,0.05041 -0.201628,0.176425 0.138619,0.21423 0.138619,0.239433 0,0.201628 -0.491469,0.693097 l -0.138619,0.28984 q -0.07561,0.07561 -0.100814,0.07561 l -0.277239,-0.0252 -0.07561,0.100814 0.07561,0.252036 q -0.138619,0.28984 -0.340247,0.340247 l -0.05041,0.05041 -0.0252,0.126018 -0.126017,0.08821 q -0.0252,0 -0.0252,0.0252 l 0.05041,0.252036 q -0.05041,0.07561 -0.151221,0.151221 -0.08821,0.06301 -0.176424,0.315044 -0.08821,0.252035 -0.289841,0.252035 l -0.113416,-0.05041 h -0.0252 l -0.0252,0.239433 0.0252,0.100814 q 0,0.100814 -0.201628,0.226832 l -0.126018,0.138619 q 0,0.151221 -0.28984,0.441062 -0.277239,0.277238 -0.415858,0.50407 -0.21423,0.113416 -0.453663,0.415858 -0.415858,0.352849 -0.504071,0.453663 -0.07561,0.08821 -0.302442,0.113416 -0.163823,0.176425 -0.42846,0.226832 -0.264637,0.0378 -0.466265,0.113416 -0.189026,0.07561 -0.239433,0.07561 -0.466265,0 -0.93253,-0.365451 -0.315044,-0.0126 -0.441062,-0.226832 l -0.541875,-0.491468 q -0.516672,-0.768707 -0.516672,-1.65083 0,-0.176425 0.05041,-0.302442 0.06301,-0.13862 0.06301,-0.189027 0,-0.05041 -0.07561,-0.113416 -0.06301,-0.06301 -0.06301,-0.113415 0,-0.113416 0.21423,-0.239434 -0.151221,-0.151221 -0.151221,-0.277239 0,-0.113415 0.100814,-0.28984 0.100814,-0.176425 0.151221,-0.176425 0.05041,0 0.176425,0.126018 0,0.0252 0.0252,0.0252 0.05041,0 0.05041,-0.05041 0,-0.126018 -0.138619,-0.201629 -0.138619,-0.07561 -0.163823,-0.28984 -0.05041,-0.05041 -0.05041,-0.07561 L 90.170762,83.6873 q 0.08821,-0.378053 0.415858,-0.693097 z"
         style="-inkscape-font-specification:'Rage Italic, '"
         id="path77467" />
    </g>
  </g>
</svg>
